# xmcd
#
# Track frame offsets:
#	150
#	14844
#	28591
#	46902
#	68312
#	83717
#	97041
#	113143
#	130478
#	142950
#
# Disc length: 2218 seconds
#
# Revision: 0
# Processed by: cddbd v1.5.2PL0 Copyright (c) Steve Scherf et al.
# Submitted via: EasyCDDAExtractor 16.1.0.1
#
DISCID=8008a80a
DTITLE=Татьяна Снопова - Любовь под амнистией
DYEAR=2004
DGENRE=Chanson
TTITLE0=Лондаколоровый бисквит
TTITLE1=Леди
TTITLE2=90х60х90
TTITLE3=Ресторан
TTITLE4=Бизнесмен
TTITLE5=Сучки
TTITLE6=Да не так я молода
TTITLE7=На консумации
TTITLE8=Засыпающий август
TTITLE9=Любовь под амнистией
EXTD=
EXTT0=
EXTT1=
EXTT2=
EXTT3=
EXTT4=
EXTT5=
EXTT6=
EXTT7=
EXTT8=
EXTT9=
PLAYORDER=
